<svg xmlns="http://www.w3.org/2000/svg" id="Layer_1" data-name="Layer 1" viewBox="0 0 2330 724"><defs><style>      .cls-1 {        fill: #fffbf9;        fill-rule: evenodd;        stroke-width: 0px;      }    </style></defs><path class="cls-1" d="M300.48,5.41v244.49L580.56,5.41v257.3l-294.92,257.3v-244.35L5.56,520.01V18.45l14.39-13.04v244.88L300.48,5.41ZM1335.6,13.77h-27.08l-135.88,388.56L1037.64,13.77h-84.83l42.32,114.98-96.75,273.57L762.67,13.77h-84.12l183.78,499.28h16.97l127.77-351.83,129.51,351.83h16.96L1335.6,13.77ZM1418.66,511.66h77.05V13.77h-77.05v497.89ZM1776.33,520.01c88.36,0,166.1-41.78,166.1-141.36,0-81.47-51.6-111.42-147.02-160.85-84.82-43.87-123.7-61.98-123.7-116.29,0-57.1,43.12-79.38,83.41-79.38,65.03,0,89.77,59.19,95.42,105.15l82.7-16.71c-24.74-45.96-81.99-105.15-176.71-105.15-79.87,0-150.56,41.09-150.56,129.52,0,73.11,48.78,98.88,154.09,153.89,57.96,29.94,113.8,59.88,113.8,123.95,0,57.1-43.83,89.13-95.42,89.13-75.63,0-106.73-69.64-114.51-124.65l-80.58,16.71c20.5,57.1,78.46,126.04,192.97,126.04ZM2027.98,511.66h297.58v-18.11h-220.53v-238.15h195.79v-18.8h-195.79V31.18h216.29V13.77h-293.34v497.89ZM867.06,669.01v49.33h-9.06v-122.83h32.41c14.74,0,25.85,3.16,33.34,9.48,7.49,6.32,11.23,15.34,11.23,27.05,0,5.39-1.02,10.35-3.06,14.87-2.04,4.52-4.99,8.42-8.83,11.7-3.85,3.28-8.52,5.83-14.03,7.65-5.5,1.83-11.72,2.74-18.64,2.74h-23.35ZM867.06,661.96h22.89c5.45,0,10.33-.75,14.62-2.27,4.29-1.51,7.93-3.6,10.92-6.27,2.99-2.67,5.28-5.82,6.88-9.45,1.59-3.63,2.39-7.59,2.39-11.89,0-9.46-2.92-16.75-8.75-21.86-5.83-5.11-14.52-7.66-26.07-7.66h-22.89v59.4ZM994.85,662.97v54.37h-9.06v-121.82h32.05c14.5,0,25.34,2.71,32.5,8.14,7.16,5.43,10.74,13.39,10.74,23.89,0,4.65-.83,8.9-2.49,12.74-1.66,3.85-4.04,7.22-7.15,10.11-3.11,2.9-6.85,5.28-11.23,7.15-4.38,1.87-9.32,3.09-14.83,3.66,1.42.86,2.69,2.01,3.82,3.44l43.24,52.69h-10.95c-.91,0-1.69-.17-2.34-.51-.65-.34-1.29-.91-1.91-1.7l-38.46-48.76c-.96-1.25-1.99-2.12-3.1-2.63-1.11-.51-2.82-.77-5.14-.77h-15.71ZM994.85,655.92h21.23c5.41,0,10.26-.65,14.54-1.94,4.28-1.3,7.91-3.15,10.87-5.57,2.96-2.42,5.22-5.32,6.77-8.72,1.55-3.4,2.33-7.22,2.33-11.48,0-8.69-2.85-15.14-8.54-19.34-5.7-4.2-13.98-6.3-24.85-6.3h-22.35v53.36ZM1223.82,656.84c0,9.45-1.41,18.02-4.23,25.71s-6.79,14.26-11.92,19.71c-5.12,5.45-11.26,9.65-18.4,12.62-7.14,2.97-15.06,4.45-23.75,4.45s-16.44-1.48-23.58-4.45c-7.14-2.97-13.27-7.17-18.4-12.62-5.13-5.44-9.11-12.01-11.96-19.71-2.85-7.69-4.28-16.26-4.28-25.71s1.43-17.93,4.28-25.62c2.85-7.69,6.84-14.26,11.96-19.71,5.12-5.44,11.26-9.66,18.4-12.66,7.14-3,15-4.49,23.58-4.49s16.61,1.48,23.75,4.45c7.14,2.97,13.27,7.19,18.4,12.66s9.1,12.06,11.92,19.75c2.82,7.69,4.23,16.24,4.23,25.62ZM1214.66,656.84c0-8.53-1.18-16.19-3.54-22.99-2.36-6.8-5.69-12.56-9.98-17.28s-9.46-8.34-15.5-10.85c-6.05-2.51-12.76-3.76-20.12-3.76s-13.89,1.25-19.91,3.76c-6.02,2.51-11.2,6.12-15.55,10.85-4.35,4.72-7.72,10.49-10.11,17.28-2.39,6.8-3.58,14.46-3.58,22.99s1.19,16.26,3.58,23.03c2.39,6.77,5.76,12.52,10.11,17.24,4.35,4.72,9.53,8.33,15.55,10.8,6.02,2.48,12.65,3.72,19.91,3.72s14.08-1.24,20.12-3.72c6.05-2.48,11.21-6.08,15.5-10.8s7.61-10.47,9.98-17.24c2.36-6.77,3.54-14.45,3.54-23.03ZM1381.08,656.38c0,9.41-1.41,17.88-4.22,25.4-2.81,7.52-6.77,13.92-11.87,19.2-5.11,5.28-11.22,9.33-18.33,12.14-7.11,2.81-15,4.22-23.66,4.22h-44.4v-121.82h44.4c8.66,0,16.55,1.41,23.66,4.22,7.11,2.81,13.22,6.86,18.33,12.14,5.1,5.28,9.06,11.68,11.87,19.2,2.81,7.52,4.22,15.96,4.22,25.31ZM1372.31,656.38c0-8.51-1.18-16.1-3.54-22.77-2.36-6.67-5.68-12.3-9.95-16.9-4.28-4.6-9.44-8.11-15.47-10.52-6.04-2.41-12.73-3.62-20.09-3.62h-35.6v107.73h35.6c7.36,0,14.05-1.21,20.09-3.62,6.03-2.41,11.19-5.92,15.47-10.52,4.28-4.6,7.6-10.24,9.95-16.91,2.36-6.67,3.54-14.29,3.54-22.86ZM1480.81,711.5c5.84,0,11.06-1.02,15.67-3.07,4.61-2.04,8.52-4.88,11.72-8.51,3.21-3.63,5.65-7.91,7.34-12.83,1.69-4.93,2.53-10.24,2.53-15.95v-75.62h9.06v75.62c0,6.74-1.07,13.04-3.2,18.88-2.13,5.85-5.2,10.95-9.2,15.3-4,4.35-8.86,7.76-14.59,10.24-5.73,2.48-12.16,3.72-19.3,3.72s-13.57-1.24-19.3-3.72c-5.73-2.48-10.59-5.89-14.59-10.24-4-4.35-7.07-9.45-9.2-15.3-2.13-5.85-3.2-12.14-3.2-18.88v-75.62h9.06v75.54c0,5.7.85,11.02,2.53,15.94,1.69,4.93,4.12,9.2,7.3,12.83,3.18,3.63,7.07,6.48,11.68,8.56,4.61,2.07,9.83,3.11,15.67,3.11ZM1677.11,697.46c.57,0,1.06.2,1.47.6l3.46,3.72c-2.54,2.71-5.3,5.14-8.29,7.3-2.99,2.16-6.26,4-9.8,5.53-3.54,1.53-7.43,2.71-11.66,3.54-4.23.83-8.88,1.25-13.95,1.25-8.47,0-16.23-1.48-23.28-4.45-7.05-2.97-13.1-7.17-18.14-12.62-5.04-5.44-8.97-12.03-11.79-19.75-2.82-7.72-4.23-16.31-4.23-25.76s1.45-17.75,4.36-25.41c2.91-7.66,7-14.24,12.26-19.75,5.27-5.5,11.57-9.77,18.92-12.79,7.34-3.02,15.45-4.54,24.31-4.54,4.43,0,8.49.33,12.18.99,3.68.66,7.13,1.61,10.32,2.85,3.2,1.24,6.2,2.78,9.03,4.62,2.82,1.85,5.59,3.98,8.29,6.4l-2.68,3.89c-.46.69-1.18,1.04-2.16,1.04-.52,0-1.18-.3-1.99-.91-.81-.6-1.83-1.35-3.07-2.25-1.24-.89-2.73-1.87-4.49-2.94-1.76-1.07-3.84-2.05-6.26-2.94-2.42-.89-5.21-1.64-8.38-2.25-3.17-.6-6.77-.91-10.8-.91-7.43,0-14.25,1.28-20.47,3.84-6.22,2.56-11.57,6.22-16.07,10.98-4.49,4.75-7.99,10.51-10.49,17.29-2.5,6.77-3.76,14.36-3.76,22.77s1.24,16.36,3.71,23.16c2.47,6.8,5.9,12.55,10.28,17.24,4.37,4.7,9.54,8.3,15.5,10.8,5.96,2.51,12.42,3.76,19.39,3.76,4.37,0,8.28-.29,11.7-.87,3.43-.57,6.58-1.44,9.46-2.59,2.88-1.15,5.56-2.56,8.03-4.23,2.47-1.67,4.92-3.63,7.34-5.88.29-.23.56-.42.82-.56.26-.15.56-.22.91-.22ZM1814.92,595.51v7.05h-42.26v115.78h-9.06v-115.78h-43.27v-7.05h94.58ZM1875.29,717.34h-9.06v-121.82h9.06v121.82ZM2049.21,656.84c0,9.45-1.41,18.02-4.23,25.71-2.82,7.69-6.79,14.26-11.92,19.71-5.12,5.45-11.26,9.65-18.4,12.62-7.14,2.97-15.06,4.45-23.75,4.45s-16.44-1.48-23.58-4.45c-7.14-2.97-13.27-7.17-18.4-12.62-5.13-5.44-9.11-12.01-11.96-19.71-2.85-7.69-4.28-16.26-4.28-25.71s1.43-17.93,4.28-25.62c2.85-7.69,6.84-14.26,11.96-19.71,5.12-5.44,11.26-9.66,18.4-12.66,7.14-3,15-4.49,23.58-4.49s16.61,1.48,23.75,4.45c7.14,2.97,13.27,7.19,18.4,12.66,5.12,5.47,9.1,12.06,11.92,19.75s4.23,16.24,4.23,25.62ZM2040.05,656.84c0-8.53-1.18-16.19-3.54-22.99-2.36-6.8-5.69-12.56-9.98-17.28-4.29-4.72-9.46-8.34-15.5-10.85-6.05-2.51-12.76-3.76-20.12-3.76s-13.89,1.25-19.91,3.76c-6.02,2.51-11.2,6.12-15.55,10.85-4.35,4.72-7.72,10.49-10.11,17.28-2.39,6.8-3.58,14.46-3.58,22.99s1.19,16.26,3.58,23.03c2.39,6.77,5.76,12.52,10.11,17.24,4.35,4.72,9.53,8.33,15.55,10.8,6.02,2.48,12.65,3.72,19.91,3.72s14.08-1.24,20.12-3.72c6.05-2.48,11.21-6.08,15.5-10.8,4.29-4.72,7.61-10.47,9.98-17.24,2.36-6.77,3.54-14.45,3.54-23.03ZM2109.92,595.81c.46.2.95.65,1.47,1.34l79.11,105.55c-.17-1.72-.26-3.39-.26-4.99v-102.2h8.05v121.82h-4.23c-1.32,0-2.39-.57-3.19-1.72l-79.37-105.72c.17,1.72.26,3.36.26,4.91v102.54h-8.05v-121.82h4.32c.81,0,1.44.1,1.9.3ZM2319.56,610.6c-.52.98-1.27,1.47-2.24,1.47-.75,0-1.72-.53-2.9-1.6-1.19-1.07-2.79-2.25-4.81-3.54-2.02-1.3-4.55-2.49-7.58-3.59-3.03-1.09-6.77-1.64-11.22-1.64s-8.36.64-11.74,1.9c-3.38,1.27-6.21,3-8.49,5.19-2.28,2.19-4.01,4.72-5.2,7.61-1.18,2.88-1.78,5.91-1.78,9.08,0,4.15.88,7.58,2.64,10.28,1.76,2.71,4.08,5.01,6.96,6.92,2.88,1.9,6.16,3.5,9.82,4.8s7.42,2.58,11.29,3.84c3.86,1.27,7.62,2.67,11.29,4.19,3.66,1.53,6.93,3.44,9.82,5.75,2.88,2.31,5.21,5.14,6.97,8.51,1.76,3.37,2.64,7.56,2.64,12.58s-.88,9.95-2.64,14.48c-1.76,4.52-4.3,8.46-7.64,11.8-3.34,3.34-7.43,5.98-12.27,7.91-4.84,1.93-10.36,2.9-16.58,2.9-8.06,0-15-1.43-20.82-4.28-5.82-2.85-10.91-6.75-15.29-11.71l2.42-3.8c.69-.87,1.5-1.3,2.42-1.3.52,0,1.18.34,1.99,1.04.81.69,1.79,1.54,2.94,2.55,1.15,1.01,2.54,2.1,4.15,3.28,1.61,1.18,3.49,2.28,5.62,3.28,2.13,1.01,4.58,1.86,7.35,2.55,2.77.69,5.91,1.04,9.43,1.04,4.85,0,9.17-.73,12.98-2.2,3.81-1.47,7.02-3.47,9.64-6.01,2.62-2.53,4.63-5.54,6.01-9.03,1.38-3.49,2.08-7.22,2.08-11.19,0-4.32-.88-7.88-2.64-10.67-1.76-2.79-4.08-5.13-6.97-7-2.88-1.87-6.16-3.44-9.82-4.71-3.66-1.27-7.43-2.51-11.29-3.72-3.86-1.21-7.62-2.56-11.29-4.06-3.66-1.5-6.94-3.42-9.82-5.75-2.88-2.33-5.21-5.24-6.96-8.73-1.76-3.49-2.64-7.85-2.64-13.09,0-4.09.78-8.04,2.34-11.84,1.56-3.8,3.83-7.16,6.83-10.07,3-2.91,6.7-5.24,11.12-7,4.41-1.76,9.44-2.64,15.09-2.64,6.34,0,12.04,1.01,17.08,3.02,5.05,2.02,9.64,5.1,13.79,9.25l-2.07,3.98Z"></path></svg>