<svg xmlns="http://www.w3.org/2000/svg" xmlns:xlink="http://www.w3.org/1999/xlink" xmlns:serif="http://www.serif.com/" width="100%" height="100%" viewBox="0 0 300 67" xml:space="preserve" style="fill-rule:evenodd;clip-rule:evenodd;stroke-linejoin:round;stroke-miterlimit:2;">    <g id="Wise-Logo-Primary_RGB_Paper-White.svg" serif:id="Wise Logo Primary_RGB_Paper White.svg" transform="matrix(0.128755,0,0,0.128755,150,33.5)">        <g transform="matrix(1,0,0,1,-1165,-259.5)">            <path d="M304.42,2.5L304.42,246.7L584.5,2.5L584.5,259.5L289.58,516.5L289.58,272.43L9.5,516.5L9.5,15.52L23.9,2.5L23.9,247.09L304.42,2.5ZM1339.55,10.85L1312.47,10.85L1176.59,398.96L1041.58,10.85L956.75,10.85L999.07,125.7L902.32,398.96L766.62,10.85L682.5,10.85L866.28,509.55L883.25,509.55L1011.02,158.12L1140.53,509.55L1157.49,509.55L1339.55,10.85ZM1422.6,508.16L1499.65,508.16L1499.65,10.85L1422.6,10.85L1422.6,508.16ZM1780.27,516.5C1868.63,516.5 1946.37,474.77 1946.37,375.31C1946.37,293.93 1894.77,264.02 1799.35,214.64C1714.53,170.82 1675.65,152.74 1675.65,98.48C1675.65,41.45 1718.77,19.19 1759.06,19.19C1824.09,19.19 1848.83,78.31 1854.48,124.22L1937.18,107.53C1912.44,61.62 1855.19,2.5 1760.47,2.5C1680.6,2.5 1609.91,43.54 1609.91,131.87C1609.91,204.9 1658.69,230.64 1764,285.58C1821.96,315.49 1877.8,345.4 1877.8,409.39C1877.8,466.42 1833.97,498.42 1782.38,498.42C1706.75,498.42 1675.65,428.86 1667.87,373.92L1587.29,390.61C1607.79,447.64 1665.75,516.5 1780.26,516.5L1780.27,516.5ZM2031.93,508.16L2329.51,508.16L2329.51,490.08L2108.98,490.08L2108.98,252.21L2304.77,252.21L2304.77,233.43L2108.98,233.43L2108.98,28.24L2325.27,28.24L2325.27,10.85L2031.93,10.85L2031.93,508.16Z" style="fill:rgb(255,251,249);"></path>        </g>    </g></svg>